<svg xmlns="http://www.w3.org/2000/svg" viewBox="0 0 522 522">
  <path d="M43 0C19 0 0 19 0 43v40c0 24 19 43 43 43h83V43c0-24-19-43-43-43zm110 0c-5 0-9 4-9 9v27c0 10 8 18 18 18h9a9 9 0 000-18h-9V9c0-5-4-9-9-9zm45 0c-10 0-18 8-18 18v9a9 9 0 0018 0v-9h36v18h-27a9 9 0 100 18h45c0 10 8 18 18 18v9a9 9 0 0018 0v-9c0-10-8-18-18-18V36a18 18 0 000-36zm135 0c-5 0-9 4-9 9v9c0 10 8 18 18 18h18v18c-10 0-18 8-18 18h-9a9 9 0 100 18h27c10 0 18-8 18-18V36c0-10-8-18-18-18h-18V9c0-5-4-9-9-9zm106 0c-24 0-43 19-43 43v83h83c24 0 43-19 43-43V43c0-24-19-43-43-43zM43 19h40c13 0 24 10 24 24v64H43c-13 0-24-11-24-24V43c0-14 11-24 24-24zm396 0h40c13 0 24 10 24 24v40c0 13-11 24-24 24h-64V43c0-14 11-24 24-24zM51 36c-8 0-15 7-15 15v24c0 8 7 15 15 15h39V51c0-8-7-15-15-15zm396 0c-8 0-15 7-15 15v39h39c8 0 15-7 15-15V51c0-8-7-15-15-15zM189 54c-5 0-9 4-9 9v9h-27a9 9 0 100 18h9v9a9 9 0 0018 0v-9c10 0 18-8 18-18v-9c0-5-4-9-9-9zm126 0a9 9 0 100 18 9 9 0 000-18zm-72 18c-5 0-9 4-9 9v9c-10 0-18 8-18 18v27a9 9 0 0018 0v-27h18v36h-9a9 9 0 100 18h9v54h-9a9 9 0 100 18h9c10 0 18-8 18-18h9a9 9 0 000-18h-9v-36h36c0 10 8 18 18 18h18a18 18 0 000-36h-72v-36c0-10-8-18-18-18v-9c0-5-4-9-9-9zm-90 36a9 9 0 100 18 9 9 0 000-18zm36 0c-5 0-9 4-9 9v18a9 9 0 0018 0v-18c0-5-4-9-9-9zm108 0a9 9 0 100 18 9 9 0 000-18zm36 0a9 9 0 100 18 9 9 0 000-18zm36 0c-5 0-9 4-9 9v18a9 9 0 0018 0v-18c0-5-4-9-9-9zM9 144a9 9 0 100 18 9 9 0 000-18zm63 0a18 18 0 000 36v18c-10 0-18 8-18 18h-9a9 9 0 100 18h9v27a9 9 0 0018 0v-9h18c10 0 18-8 18-18h36v36c0 10 8 18 18 18h9a9 9 0 000-18h-9v-18h18v9a9 9 0 0018 0v-9c0-10-8-18-18-18h-18v-18c10 0 18-8 18-18h9a9 9 0 000-18h-27v-18h9a9 9 0 000-18zm315 0c-5 0-9 4-9 9v18a9 9 0 0018 0v-18c0-5-4-9-9-9zm54 0c-5 0-9 4-9 9v9h-9a9 9 0 100 18h9v18c0 10 8 18 18 18h9a9 9 0 000-18h-9v-45c0-5-4-9-9-9zm45 0c-10 0-18 8-18 18v27a9 9 0 0018 0v-9c10 0 18-8 18-18h9a9 9 0 000-18zM27 162c-5 0-9 4-9 9v9c-10 0-18 8-18 18v27a9 9 0 0018 0v-9c10 0 18-8 18-18h9a9 9 0 000-18h-9v-9c0-5-4-9-9-9zm81 0h36v18h-27a9 9 0 100 18h9v18H90v-36c10 0 18-8 18-18zm117 0c-5 0-9 4-9 9v27h-9a9 9 0 100 18h9c10 0 18-8 18-18v-27c0-5-4-9-9-9zm90 36a9 9 0 100 18 9 9 0 000-18zm54 0a9 9 0 100 18 9 9 0 000-18zm36 0c-5 0-9 4-9 9v27h-9a9 9 0 100 18h9v18c0 10 8 18 18 18v9a9 9 0 0018 0v-9h9a9 9 0 000-18h-27v-18h54v27a9 9 0 0018 0v-27h18v27a9 9 0 0018 0v-72a9 9 0 00-18 0v27h-72c0-10-8-18-18-18v-9c0-5-4-9-9-9zm-54 18a9 9 0 100 18 9 9 0 000-18zm-126 18c-5 0-9 4-9 9v18a9 9 0 0018 0v-18c0-5-4-9-9-9zm108 0c-5 0-9 4-9 9v9c0 10 8 18 18 18h9a9 9 0 000-18h-9v-9c0-5-4-9-9-9zM9 252a9 9 0 100 18h9v9a9 9 0 0018 0v-9c0-10-8-18-18-18zm108 0a9 9 0 100 18 9 9 0 000-18zm153 0c-10 0-18 8-18 18h-9a9 9 0 100 18h9c10 0 18-8 18-18h9a9 9 0 000-18zM81 270a9 9 0 100 18 9 9 0 000-18zm216 0a9 9 0 100 18 9 9 0 000-18zm72 0c-5 0-9 4-9 9v9c-10 0-18 8-18 18h-27a9 9 0 100 18h9v18c0 10 8 18 18 18v18h-18c0-10-8-18-18-18v-27a9 9 0 00-18 0v9h-9a9 9 0 100 18h9v36c-10 0-18 8-18 18v9a9 9 0 0018 0v-9c10 0 18-8 18-18h36v36c0 10 8 18 18 18v18h-9a9 9 0 100 18h27c0 10 8 18 18 18v9a9 9 0 0018 0v-9c0-10-8-18-18-18v-36h63a9 9 0 000-18h-9v-18c10 0 18-8 18-18v-18h27a9 9 0 000-18h-9c0-10-8-18-18-18v-9a9 9 0 00-18 0v9c-10 0-18 8-18 18h-18v-9a9 9 0 00-18 0v9h-36v-18c10 0 18-8 18-18v-18h9a9 9 0 000-18h-9v-9c0-5-4-9-9-9zM9 288c-5 0-9 4-9 9v63c0 10 8 18 18 18h117a9 9 0 000-18h-27v-9a9 9 0 00-18 0v9H36v-18h36a18 18 0 000-36 18 18 0 10-36 0H18v-9c0-5-4-9-9-9zm108 0a9 9 0 100 18h9c0 10 8 18 18 18v9a9 9 0 0018 0v-9c0-10-8-18-18-18 0-10-8-18-18-18zm99 0c-10 0-18 8-18 18h-9a9 9 0 100 18h9c0 10 8 18 18 18h18v36h-18c-10 0-18 8-18 18h-9a9 9 0 100 18h27v18h-54v-36c10 0 18-8 18-18v-18h9a9 9 0 000-18h-9c-10 0-18 8-18 18v18c-10 0-18 8-18 18v63a9 9 0 0018 0v-9h36v45a9 9 0 0018 0v-45h18v18c0 10 8 18 18 18v9a9 9 0 0018 0v-9h27a9 9 0 000-18h-9c0-10-8-18-18-18h-18V342h9a9 9 0 000-18h-45v-18h9a9 9 0 000-18zm63 0a9 9 0 100 18 9 9 0 000-18zm180 0a9 9 0 100 18 9 9 0 000-18zm-18 18a9 9 0 100 18 9 9 0 000-18zm36 0a9 9 0 100 18h18a9 9 0 000-18zm-360 18a9 9 0 100 18 9 9 0 000-18zm396 0a9 9 0 100 18 9 9 0 000-18zm-135 54h54v54h-54zm-252 18H43c-24 0-43 19-43 43v40c0 24 19 43 43 43h40c24 0 43-19 43-43zm279 0a9 9 0 100 18 9 9 0 000-18zm-90 18a9 9 0 100 18 9 9 0 000-18zm180 0a9 9 0 100 18 9 9 0 000-18zm-388 1v64c0 14-11 24-24 24H43c-13 0-24-10-24-24v-40c0-13 11-24 24-24zm-17 17H51c-8 0-15 7-15 15v24c0 8 7 15 15 15h24c8 0 15-7 15-15zm207 0a9 9 0 100 18 9 9 0 000-18zm198 18c-5 0-9 4-9 9v9c-10 0-18 8-18 18h-9a9 9 0 100 18h9c10 0 18-8 18-18h18v9a9 9 0 0018 0v-9c0-10-8-18-18-18v-9c0-5-4-9-9-9zm-324 18a9 9 0 100 18 9 9 0 000-18zm252 0a9 9 0 100 18h18a9 9 0 000-18zm-270 36a9 9 0 100 18h18a9 9 0 000-18zm72 0a9 9 0 100 18h18a9 9 0 000-18zm54 0a9 9 0 100 18h18a9 9 0 000-18zm72 0a9 9 0 100 18h18a9 9 0 000-18zm90 0a9 9 0 100 18 9 9 0 000-18z"/>
</svg>