<svg  xmlns="http://www.w3.org/2000/svg" viewBox="0 0 512 512">
  <path d="M 448,32 H 63.9 C 46.3,32 32,46.5 32,64.3 V 447.7 C 32,465.5 46.3,480 63.9,480 H 448 c 17.6,0 32,-14.5 32,-32.3 V 64.3 C 480,46.5 465.6,32 448,32 Z M 167.4,416 H 101 V 202.2 h 66.5 V 416 Z M 134.2,173 c -21.3,0 -38.5,-17.3 -38.5,-38.5 0,-21.2 17.2,-38.5 38.5,-38.5 21.2,0 38.5,17.3 38.5,38.5 0,21.3 -17.2,38.5 -38.5,38.5 z M 416.3,416 H 349.9 V 312 c 0,-24.8 -0.5,-56.7 -34.5,-56.7 -34.6,0 -39.9,27 -39.9,54.9 V 416 H 209.1 V 202.2 h 63.7 v 29.2 h 0.9 c 8.9,-16.8 30.6,-34.5 62.9,-34.5 67.2,0 79.7,44.3 79.7,101.9 z"></path>
</svg>